<svg xmlns="http://www.w3.org/2000/svg" enable-background="new 0 0 70 70" viewBox="0 0 70 70"><path fill="#e3dfee" d="M20.3,58.8c-9.8-9.8-9.7-25.5,0-35.3c1.6-1.6,3.4-3,5.4-4.1c4.2-2.4,8.9-3.4,13.5-3.2
		c5.9,0.3,11.8,2.7,16.4,7.3c0.7,0.7,1.3,1.4,1.9,2.1c0.8,1,1.5,2,2.1,3c5.5,9.5,4.2,22-4,30.1c-1.7,1.7-3.5,3-5.5,4.1
		c-0.5,0.3-1,0.5-1.5,0.8c-6.7,3.2-14.5,3.2-21.3,0c-2.1-1-4.1-2.3-5.9-3.9C21.1,59.5,20.7,59.2,20.3,58.8z"/><path fill="#afa8d4" d="M20.3,58.8c-9.8-9.8-9.7-25.5,0-35.3c1.6-1.6,3.4-3,5.4-4.1c0.4,0.2,0.8,0.4,1.2,0.6c2.4,1.2,5,3.1,4.8,5.7
		c-0.1,2-1.7,3.6-3.2,5c-1.4,1.4-2.9,3.3-2.4,5.3c0.5,2.2,3.3,3.8,2.7,6c-0.4,1.4-2.2,2.1-2.7,3.5c-0.3,1,0,2.1,0.7,3
		c0.6,0.9,1.4,1.6,2.1,2.4c2.1,2.6,2.2,6.5,0.8,9.5c-0.6,1.2-1.4,2.3-2.4,3.2c-2.1-1-4.1-2.3-5.9-3.9C21.1,59.5,20.7,59.2,20.3,58.8
		z"/><path fill="#fff" d="M50.1,62.9c-0.1-0.3-0.1-0.7-0.1-1c0.1-2,1.7-3.6,3.2-5c1.4-1.4,2.9-3.3,2.4-5.3c-0.5-2.2-3.3-3.8-2.7-6
		c0.4-1.4,2.2-2.1,2.7-3.5c0.3-1,0-2.1-0.7-3c-0.6-0.9-1.4-1.6-2.1-2.4c-2.1-2.6-2.2-6.5-0.8-9.5c0.6-1.2,1.4-2.3,2.4-3.2
		c1.1,0.5,2.1,1.1,3.1,1.7c0.8,1,1.5,2,2.1,3c5.5,9.5,4.2,22-4,30.1C53.9,60.5,52.1,61.8,50.1,62.9z" opacity=".4"/><path fill="#fec901" d="M21.5,59.9c0.3-0.1,0.5-0.2,0.8-0.3c1.7-0.7,2.9-2.3,4-3.8c1-1.5,2-3.2,3.5-4.3c1.5-1.2,3.5-1.7,5.2-0.9
		c1.2,0.6,2.1,2,3.3,2.5c0.2,0.1,0.5,0.2,0.8,0.2c1.4,0.2,2.6-0.9,3.4-2.1c0.8-1.1,1.5-2.5,2.6-3.2c1.1-0.7,2.7-0.7,3.9,0
		c1.2,0.7,2.5,2.3,1.8,3.5c-0.1,0.2-0.3,0.5-0.4,0.7c-1.2,2.3-2.1,4.5-2.1,7.1c0,1.5,0.1,3,0.3,4.4c-1.7,0.8-3.5,1.4-5.3,1.8
		c-3.8,0.8-7.7,0.8-11.5-0.2C28.1,64.4,24.5,62.6,21.5,59.9z"/><path fill="#fca917" d="M21.5,59.9c0.3-0.1,0.5-0.2,0.8-0.3c1.7-0.7,2.9-2.3,4-3.8c1-1.5,2-3.2,3.5-4.3c1.5-1.2,3.5-1.7,5.2-0.9
		c1.2,0.6,2.1,2,3.3,2.5c0.1,0.2,0.1,0.4,0.1,0.6c-0.1,1.2-1.3,1.9-2.4,2.4c-1.1,0.4-2.4,0.9-2.8,2c-0.3,0.9,0,1.9,0.1,2.8
		c0.2,1.6-0.4,3.2-1.4,4.4C28.1,64.4,24.5,62.6,21.5,59.9z"/><path fill="#fff" d="M43.3,65.5c0.1-0.8,0.7-1.6,1.3-2.2c0.8-0.8,1.8-1.8,1.7-3c0-0.9-0.8-1.7-1.2-2.5c-0.8-1.4-1.7-3.5-0.6-4.6
		c1.5-1.4,3.6-1.5,5.8-1c-1.2,2.3-2.1,4.5-2.1,7.1c0,1.5,0.1,3,0.3,4.4C46.9,64.5,45.1,65.1,43.3,65.5z" opacity=".4"/><path fill="#17b5ff" d="M42.7,38.4c-0.6-1.4,0.1-3,0.9-4.3c0.1-0.2,0.3-0.5,0.4-0.7c0.6-1.1,1.2-2.3,0.9-3.6c-0.4-1.9-2.6-2.8-4.6-3.2
		c-1-0.2-2.5-0.4-3.6-0.8c-0.9-0.3-1.6-0.9-1.5-1.8c0.1-2.6,3.1-4.4,3.8-6.9c0.1-0.3,0.2-0.5,0.2-0.8c2.5,0.1,5.1,0.6,7.5,1.5
		c3.3,1.2,6.3,3.1,8.9,5.7c0.6,0.6,1.1,1.1,1.6,1.7c0.9,1.1,1.7,2.3,2.4,3.5c-0.7,1.4-0.8,3.2-1.7,4.5c-0.8,1.4-2.3,2.3-3.7,3.1
		c-1.4,0.8-2.7,1.5-4.1,2.3c-1.2,0.7-2.5,1.4-3.9,1.5C44.8,40.2,43.2,39.7,42.7,38.4z"/><path fill="#fff" d="M42.7,38.4c-0.6-1.4,0.1-3,0.9-4.3c0.1-0.2,0.3-0.5,0.4-0.7c0.5,0.6,1,1,1.7,1.2c1.2,0.3,2.5-0.5,3-1.6
		c0.5-1.1-1-3.1,0.1-3.7c0.6-0.3,0.9,1.1,1.5,1.4c0.6,0.3,1.5,0.2,1.9-0.3c0.4-0.6,0.2-1.4-0.2-2c-0.4-0.6-1-1-1.5-1.6
		c-0.4-0.6-0.7-1.4-0.2-2c0.5-0.6,1.5-0.6,2.2-0.2c0.7,0.4,1.2,1,1.8,1.5c0.6,0.5,1.5,0.8,2.2,0.3c0.4-0.3,0.6-0.7,0.7-1.2
		c0.9,1.1,1.7,2.3,2.4,3.5c-0.7,1.4-0.8,3.2-1.7,4.5c-0.8,1.4-2.3,2.3-3.7,3.1c-1.4,0.8-2.7,1.5-4.1,2.3c-1.2,0.7-2.5,1.4-3.9,1.5
		C44.8,40.2,43.2,39.7,42.7,38.4z" opacity=".4"/><path fill="#ff4c93" d="M31.6,15.1C31.1,8.8,25.8,3.9,19.4,3.9c-6.8,0-12.3,5.5-12.3,12.3c0,3.5,3.3,9,6.4,13.4c1,1.5,2.1,2.8,2.9,3.9
		c1.5,1.9,4.3,1.9,5.8,0c3.6-4.6,9.4-12.7,9.4-17.4C31.7,15.8,31.7,15.5,31.6,15.1z M19.4,22.2c-3.5,0-6.4-2.9-6.4-6.4
		s2.9-6.4,6.4-6.4s6.4,2.9,6.4,6.4S22.9,22.2,19.4,22.2z"/><path fill="#ff1a77" d="M31.7,16.2c0,4.6-5.7,12.7-9.4,17.4c-1.5,1.9-4.3,1.9-5.8,0c-0.9-1.1-1.9-2.5-2.9-3.9c0-0.3,0.1-0.5,0.2-0.8
		c0.4-0.8,1.4-1.1,2.3-1.1c0.9,0,1.8,0.3,2.7,0.3s1.9-0.2,2.4-0.9c0.6-0.8,0.5-2.2,1.4-2.6c0.5-0.2,1,0,1.5-0.1
		c1.1-0.2,1.6-1.4,1.8-2.4c0.1-1.1,0-2.2,0.5-3.1c0.5-1,1.5-1.5,2.4-2.1c1-0.6,2-1.1,3-1.7C31.7,15.5,31.7,15.8,31.7,16.2z"/><path fill="#2d2d4f" d="M60.3,28.2c-1.1-2-2.5-3.8-4.1-5.4c-3-3-6.6-5.1-10.5-6.4c-2.1-0.7-4.2-1.1-6.4-1.2c0,0,0,0,0,0
		c-2.3-0.1-4.5,0.1-6.7,0.6C32.4,8.8,26.6,3,19.4,3C12.1,3,6.2,8.9,6.2,16.2c0,4,3.9,10.3,7.7,15.5c-3.8,9.6-1.6,20.4,5.8,27.8
		c0.4,0.4,0.8,0.8,1.2,1.1c4.8,4.2,10.9,6.4,17.1,6.4c0,0,0,0,0,0c0,0,0,0,0,0c3.8,0,7.5-0.8,11.1-2.5c0,0,0,0,0,0
		c2.7-1.2,5.1-2.9,7.2-5.1h0C64.5,51.2,66.2,38.3,60.3,28.2z M45.7,29.6c-0.4-1.9-2.2-3.2-5.2-3.9c-0.3-0.1-0.7-0.1-1.1-0.2
		c-1.8-0.3-3.3-0.7-3.3-1.4c0-1.2,0.9-2.2,1.8-3.3c0.8-1,1.7-2.1,2-3.4c0,0,0-0.1,0-0.1c0.1,0,0.1,0,0.2,0c0.6,0.1,1.1,0.1,1.7,0.2
		c0.1,0,0.3,0,0.4,0.1c0.6,0.1,1.2,0.2,1.7,0.4c0.1,0,0.2,0.1,0.3,0.1c0.6,0.2,1.2,0.3,1.8,0.5c0.1,0,0.2,0.1,0.2,0.1
		c0.6,0.2,1.2,0.5,1.7,0.7c0.1,0,0.1,0.1,0.2,0.1c0.6,0.3,1.2,0.6,1.7,0.9c0,0,0.1,0,0.1,0.1c0.6,0.3,1.1,0.7,1.7,1.1c0,0,0,0,0.1,0
		c1.1,0.8,2.2,1.7,3.2,2.7c0.2,0.2,0.3,0.4,0.5,0.5c0.2,0.2,0.3,0.4,0.5,0.5c0.2,0.2,0.4,0.4,0.5,0.6c0.1,0.2,0.3,0.4,0.4,0.5
		c0.2,0.2,0.3,0.4,0.5,0.7c0.1,0.2,0.3,0.4,0.4,0.6c0.1,0.2,0.3,0.4,0.4,0.6c0.1,0.2,0.2,0.3,0.3,0.5c-0.3,0.6-0.4,1.2-0.6,1.8
		c-0.2,0.8-0.4,1.6-0.8,2.2c-0.7,1.2-2.2,2-3.4,2.7c-1.1,0.6-2.3,1.3-3.4,1.9l-0.7,0.4c-1.2,0.6-2.3,1.2-3.5,1.4
		c-1,0.1-2.2-0.3-2.6-1.2c-0.4-0.8-0.1-1.9,0.8-3.5C45.1,33.2,46.2,31.4,45.7,29.6z M19.4,4.8c6.3,0,11.4,5.1,11.4,11.4
		c0,0.3,0,0.6-0.1,0.9c0,0.2-0.1,0.4-0.1,0.5c0,0.2-0.1,0.4-0.1,0.5c0,0.1,0,0.1-0.1,0.2c-0.8,2.6-2.8,6.3-5.8,10.5
		c0,0-0.1,0.1-0.1,0.1c-0.3,0.4-0.6,0.8-0.9,1.2c0,0,0,0,0,0.1c-0.3,0.4-0.6,0.8-1,1.3c0,0-0.1,0.1-0.1,0.1c-0.3,0.4-0.7,0.9-1,1.3
		c-0.1,0.1-0.2,0.3-0.4,0.4c-0.5,0.4-1.1,0.7-1.8,0.7c0,0,0,0,0,0c-0.4,0-0.8-0.1-1.2-0.3c-0.4-0.2-0.7-0.5-1-0.8
		C11.4,25.5,8,19.4,8,16.2C8,9.9,13.1,4.8,19.4,4.8z M47.7,63.1c-0.2,0.1-0.5,0.2-0.7,0.3c-0.2,0.1-0.4,0.1-0.5,0.2
		c-0.4,0.1-0.7,0.3-1.1,0.4c-0.2,0.1-0.3,0.1-0.5,0.2c-0.4,0.1-0.8,0.2-1.2,0.3c-0.1,0-0.3,0.1-0.4,0.1c-0.5,0.1-1,0.2-1.4,0.3
		c-0.1,0-0.1,0-0.2,0c-1.1,0.2-2.3,0.3-3.4,0.3c-0.1,0-0.3,0-0.4,0c-0.4,0-0.8,0-1.3,0c-0.2,0-0.4,0-0.6-0.1c-0.3,0-0.7-0.1-1-0.1
		c-0.2,0-0.5-0.1-0.7-0.1c-0.3,0-0.6-0.1-0.9-0.2c-0.3-0.1-0.5-0.1-0.8-0.2c-0.3-0.1-0.6-0.1-0.8-0.2c-0.3-0.1-0.5-0.2-0.8-0.2
		c-0.3-0.1-0.5-0.2-0.8-0.3c-0.3-0.1-0.6-0.2-0.8-0.3c-0.2-0.1-0.5-0.2-0.7-0.3c-0.3-0.1-0.6-0.2-0.8-0.4c-0.2-0.1-0.4-0.2-0.7-0.3
		c-0.3-0.1-0.6-0.3-0.8-0.4c-0.2-0.1-0.4-0.2-0.6-0.4c-0.3-0.2-0.6-0.3-0.8-0.5c-0.2-0.1-0.4-0.3-0.6-0.4c-0.3-0.2-0.6-0.4-0.8-0.6
		c0,0-0.1,0-0.1-0.1c1.6-0.9,2.8-2.3,3.8-3.8l0.4-0.6c0.9-1.4,1.8-2.6,2.9-3.6c1.1-0.9,2.9-1.5,4.2-0.8c0.5,0.2,0.9,0.7,1.4,1.1
		c0.8,0.7,1.7,1.6,2.9,1.7c2,0.2,3.5-1.4,4.2-2.4c0.2-0.3,0.4-0.6,0.6-0.9c0.5-0.8,1.1-1.6,1.8-2.1c0.9-0.5,2.1-0.6,3,0
		c0.9,0.6,1.8,1.7,1.5,2.2c-1.4,2.4-2.7,5.1-2.6,8.3C47.4,60.6,47.5,61.9,47.7,63.1z M55,58.2c-1.7,1.7-3.5,3-5.6,4.1
		c-0.1-1-0.1-2-0.2-3c-0.1-2.7,1.1-5.2,2.4-7.4c1-1.7-0.7-3.8-2.1-4.7c-1.5-0.9-3.4-0.8-4.8,0.1c-1.1,0.7-1.7,1.7-2.3,2.6
		c-0.2,0.3-0.4,0.6-0.6,0.8c-0.4,0.6-1.4,1.8-2.6,1.7c-0.7-0.1-1.3-0.6-1.9-1.2c-0.5-0.5-1.1-1-1.8-1.4c-1.8-1-4.2-0.6-6.2,1
		c-1.4,1.1-2.4,2.6-3.3,4l-0.4,0.5c-1,1.4-2.1,2.8-3.6,3.5c-0.1,0-0.2,0.1-0.3,0.1c-0.2-0.2-0.5-0.4-0.7-0.7
		c-6.6-6.6-8.7-16.1-5.8-24.8c0.2,0.3,0.4,0.5,0.6,0.8c0.4,0.5,0.9,0.9,1.5,1.2c0.7,0.3,1.4,0.5,2.1,0.5c1.4,0,2.7-0.6,3.6-1.7
		c0,0,0,0,0.1-0.1c0,0,0,0,0,0c0,0,0,0,0,0c0,0,0-0.1,0.1-0.1c0.2-0.3,0.5-0.6,0.7-0.9c0-0.1,0.1-0.1,0.1-0.2
		c0.2-0.3,0.5-0.6,0.7-0.9c0.1-0.1,0.1-0.1,0.2-0.2c0.2-0.3,0.4-0.6,0.7-0.9c0.1-0.1,0.1-0.2,0.2-0.2c0.2-0.3,0.4-0.6,0.6-0.9
		c0.1-0.1,0.1-0.2,0.2-0.2c0.2-0.3,0.4-0.6,0.6-0.9c0.1-0.1,0.1-0.2,0.2-0.2c0.2-0.3,0.4-0.7,0.7-1c0-0.1,0.1-0.1,0.1-0.2
		c0.2-0.4,0.5-0.8,0.7-1.1c0,0,0,0,0,0c0.7-1.2,1.4-2.4,2-3.5c0-0.1,0.1-0.1,0.1-0.2c0.2-0.3,0.3-0.6,0.4-0.9c0-0.1,0.1-0.2,0.1-0.3
		c0.1-0.3,0.2-0.5,0.3-0.8c0-0.1,0.1-0.2,0.1-0.3c0.1-0.2,0.2-0.5,0.3-0.7c0-0.1,0.1-0.2,0.1-0.3c0.1-0.2,0.1-0.4,0.2-0.7
		c0-0.1,0.1-0.2,0.1-0.3c0-0.1,0-0.1,0-0.2c1.8-0.4,3.7-0.6,5.6-0.6c-0.3,0.8-0.9,1.6-1.6,2.4c-1,1.3-2.1,2.6-2.2,4.4
		c-0.1,2.4,2.7,2.9,4.8,3.3c0.4,0.1,0.7,0.1,1,0.2c2.3,0.5,3.6,1.4,3.9,2.6c0.3,1.1-0.5,2.4-1.2,3.6c-0.8,1.3-1.8,3.3-0.9,5.2
		c0,0,0,0,0,0c0.7,1.6,2.5,2.3,4,2.3c0.2,0,0.3,0,0.5,0c1.6-0.2,2.9-0.9,4.2-1.6l0.7-0.4c1.1-0.6,2.3-1.3,3.4-1.9
		c1.4-0.8,3.1-1.7,4.1-3.4c0.5-0.8,0.8-1.8,1-2.6c0,0,0-0.1,0-0.1C64,40,62.2,50.9,55,58.2z"/><path fill="#2d2d4f" d="M26.7,15.8c0-4-3.3-7.3-7.3-7.3s-7.3,3.3-7.3,7.3s3.3,7.3,7.3,7.3S26.7,19.8,26.7,15.8z M13.9,15.8
		c0-3,2.5-5.5,5.5-5.5c3,0,5.5,2.5,5.5,5.5s-2.5,5.5-5.5,5.5C16.4,21.3,13.9,18.8,13.9,15.8z"/></svg>