<svg xmlns="http://www.w3.org/2000/svg" enable-background="new 0 0 512 512" viewBox="0 0 512 512"><path fill="#a7b1b3" d="M461.087 49.18v275.308H28.834V49.18c0-11.547 9.36-20.909 20.909-20.909h390.437C451.727 28.272 461.087 37.632 461.087 49.18zM484.509 340.074v-5.131c0-5.774-4.681-10.454-10.454-10.454H15.815c-5.774 0-10.454 4.681-10.454 10.454v5.131c0 2.773 1.102 5.431 3.062 7.392l14.785 14.785c1.96 1.96 4.62 3.062 7.392 3.062H459.27c2.773 0 5.431-1.102 7.392-3.062l14.785-14.785C483.407 345.506 484.509 342.846 484.509 340.074z"/><path fill="#fff" d="M57.448,365.326H30.581c-2.769,0-5.435-1.098-7.37-3.084L8.419,347.449c-1.934-1.934-3.084-4.6-3.084-7.37v-5.123c0-5.802,4.704-10.454,10.454-10.454h26.867c-5.802,0-10.454,4.652-10.454,10.454v5.123c0,2.77,1.098,5.436,3.032,7.37l14.793,14.793C52.013,364.228,54.678,365.326,57.448,365.326z" enable-background="new" opacity=".5"/><path d="M484.483,334.957v5.123c0,2.77-1.098,5.436-3.031,7.37l-14.793,14.793c-1.934,1.986-4.599,3.084-7.37,3.084H435.87c2.77,0,5.385-1.098,7.37-3.084l14.793-14.793c1.935-1.934,3.031-4.599,3.031-7.37v-5.123c0-5.802-4.652-10.454-10.454-10.454h23.417C479.83,324.503,484.483,329.155,484.483,334.957z" enable-background="new" opacity=".15"/><path fill="#a5e0fa" d="M428.775,68.493V284.28c0,5.6-4.534,10.133-10.133,10.133H71.281c-5.6,0-10.133-4.534-10.133-10.133V68.493c0-5.6,4.533-10.133,10.133-10.133h347.36C424.241,58.36,428.775,62.893,428.775,68.493z"/><path fill="#fff" d="M414.962,58.36L178.854,294.413H71.281c-5.6,0-10.133-4.534-10.133-10.133v-82.72L204.401,58.36H414.962z" enable-background="new" opacity=".5"/><polygon fill="#fff" points="428.775 91.426 428.775 151.16 285.522 294.413 225.788 294.413" enable-background="new" opacity=".5"/><path fill="#a5e0fa" d="M506.641,262.947v177.227H361.788V262.947c0-6.187,5.013-11.254,11.254-11.254h122.347C501.629,251.693,506.641,256.76,506.641,262.947z"/><path fill="#fff" d="M506.641,262.947v40.16L369.575,440.172h-7.786V327.959l76.266-76.266h57.333C501.629,251.693,506.641,256.76,506.641,262.947z" enable-background="new" opacity=".5"/><polygon fill="#fff" points="506.641 329.88 506.641 363.906 430.374 440.172 396.348 440.172" enable-background="new" opacity=".5"/><path fill="#a7b1b3" d="M361.763,440.162v32.302c0,6.222,5.043,11.266,11.266,11.266h122.372c6.222,0,11.266-5.043,11.266-11.266v-32.302H361.763z"/><path d="M506.639,440.165v32.277c0,6.253-5.013,11.266-11.266,11.266h-18.419c6.253,0,11.266-5.013,11.266-11.266v-32.277H506.639z" enable-background="new" opacity=".15"/><path d="M440.161,22.935H49.76c-14.469,0-26.239,11.77-26.239,26.239v269.974h-7.68C7.107,319.148,0,326.229,0,334.934v5.119c0,4.149,1.698,8.226,4.656,11.184l14.777,14.777c2.961,2.958,7.037,4.653,11.182,4.653h325.815c0,56.611,0,44.221,0,101.797c0,9.153,7.445,16.598,16.598,16.598h122.372c9.153,0,16.599-7.445,16.599-16.598c0-74.156,0-130.194,0-209.498c0-9.153-7.445-16.598-16.599-16.598h-29V49.174C466.401,34.706,454.63,22.935,440.161,22.935z M356.43,360.002H30.615c-1.342,0-2.669-0.56-3.643-1.531l-14.773-14.773c-0.974-0.974-1.531-2.302-1.531-3.643v-5.119c0-2.823,2.321-5.119,5.174-5.119h13.013H356.43V360.002z M356.43,319.148H34.188V49.174c0-8.586,6.987-15.573,15.573-15.573h390.401c8.586,0,15.573,6.987,15.573,15.573v197.195h-21.599V68.481c0-8.529-6.94-15.466-15.469-15.466H71.255c-8.529,0-15.469,6.937-15.469,15.466v215.786c0,8.529,6.94,15.466,15.469,15.466H356.43V319.148z M356.43,262.969v26.099H71.255c-2.649,0-4.802-2.154-4.802-4.8V68.481c0-2.646,2.154-4.8,4.802-4.8h347.412c2.649,0,4.802,2.154,4.802,4.8v177.888h-50.44C363.875,246.369,356.43,253.816,356.43,262.969z M501.333,472.466c0,3.271-2.662,5.932-5.932,5.932H373.029c-3.271,0-5.932-2.662-5.932-5.932v-26.971h134.237v26.971H501.333z M495.401,257.037c3.271,0,5.932,2.662,5.932,5.932v171.86H367.096v-171.86c0-3.271,2.662-5.932,5.932-5.932H495.401z"/><path d="M428.289,467.281h11.852c2.945,0,5.334-2.388,5.334-5.334c0-2.945-2.388-5.334-5.334-5.334h-11.852c-2.945,0-5.334,2.388-5.334,5.334C422.955,464.893,425.344,467.281,428.289,467.281z"/></svg>