<svg xmlns="http://www.w3.org/2000/svg" enable-background="new 0 0 16 16" viewBox="0 0 16 16"><g display="none"><ellipse cx="3.5" cy="13.5" fill="none" stroke="#000" stroke-linecap="round" stroke-linejoin="round" stroke-miterlimit="10" rx="3" ry="2"/><ellipse cx="12.5" cy="11.5" fill="none" stroke="#000" stroke-linecap="round" stroke-linejoin="round" stroke-miterlimit="10" rx="3" ry="2"/><polyline fill="none" stroke="#000" stroke-linecap="round" stroke-linejoin="round" stroke-miterlimit="10" points="15.5 11.5 15.5 .5 6.5 2.5 6.5 6 15.5 4"/><line x1="6.5" x2="6.5" y1="8" y2="13.5" fill="none" stroke="#000" stroke-linecap="round" stroke-linejoin="round" stroke-miterlimit="10"/></g><g display="none"><path d="M15.8,0.1C15.7,0,15.5,0,15.4,0l-9,2C6.2,2.1,6,2.3,6,2.5V6c0,0.2,0.1,0.3,0.2,0.4c0.1,0.1,0.3,0.1,0.4,0.1L15,4.6v5.1
			C14.4,9.3,13.5,9,12.5,9c-2,0-3.5,1.1-3.5,2.5s1.5,2.5,3.5,2.5s3.5-1.1,3.5-2.5V4c0,0,0,0,0,0V0.5C16,0.3,15.9,0.2,15.8,0.1z
			 M7,5.4V2.9l8-1.8v2.5L7,5.4z M12.5,13c-1.4,0-2.5-0.7-2.5-1.5s1.1-1.5,2.5-1.5s2.5,0.7,2.5,1.5S13.9,13,12.5,13z"/><path d="M6.5,7.5C6.2,7.5,6,7.7,6,8v3.7C5.4,11.3,4.5,11,3.5,11c-2,0-3.5,1.1-3.5,2.5S1.5,16,3.5,16S7,14.9,7,13.5V8
			C7,7.7,6.8,7.5,6.5,7.5z M3.5,15C2.1,15,1,14.3,1,13.5S2.1,12,3.5,12S6,12.7,6,13.5S4.9,15,3.5,15z"/></g><polygon fill="#7d8b8c" points="6.5 2.5 15.5 .5 15.5 4 6.5 6"/><path fill="#d7dce0" d="M6.5 13.5c0 1.1-1.3 2-3 2-1 0-1.9-.3-2.5-.9C1.3 13.1 3 12 5 12c.2 0 .4 0 .5 0C6.1 12.4 6.5 12.9 6.5 13.5zM15.5 11.5c0 1.1-1.3 2-3 2-1 0-1.9-.3-2.5-.9.2-1.5 1.9-2.6 4-2.6.2 0 .4 0 .5 0C15.1 10.4 15.5 10.9 15.5 11.5z"/><path fill="#3e3643" d="M15.8,0.1C15.7,0,15.5,0,15.4,0l-9,2C6.2,2.1,6,2.3,6,2.5V6c0,0.2,0.1,0.3,0.2,0.4c0.1,0.1,0.3,0.1,0.4,0.1
				L15,4.6v5.1C14.4,9.3,13.5,9,12.5,9c-2,0-3.5,1.1-3.5,2.5s1.5,2.5,3.5,2.5s3.5-1.1,3.5-2.5V4c0,0,0,0,0,0V0.5
				C16,0.3,15.9,0.2,15.8,0.1z M7,5.4V2.9l8-1.8v2.5L7,5.4z M12.5,13c-1.4,0-2.5-0.7-2.5-1.5s1.1-1.5,2.5-1.5s2.5,0.7,2.5,1.5
				S13.9,13,12.5,13z"/><path fill="#3e3643" d="M6.5,7.5C6.2,7.5,6,7.7,6,8v3.7C5.4,11.3,4.5,11,3.5,11c-2,0-3.5,1.1-3.5,2.5S1.5,16,3.5,16S7,14.9,7,13.5V8
				C7,7.7,6.8,7.5,6.5,7.5z M3.5,15C2.1,15,1,14.3,1,13.5S2.1,12,3.5,12S6,12.7,6,13.5S4.9,15,3.5,15z"/></svg>